<mxfile host="drawio-plugin" modified="2024-02-02T03:48:59.243Z" agent="5.0 (Macintosh; Intel Mac OS X 10_15_7) AppleWebKit/537.36 (KHTML, like Gecko) Chrome/111.0.0.0 Safari/537.36" etag="UnuncuQf7arPCxBoeGgt" version="20.5.3" type="embed"><diagram name="Page-1" id="dgtxuerMMSXF1kjH5jog"><mxGraphModel dx="1857" dy="1927" grid="1" gridSize="10" guides="1" tooltips="1" connect="1" arrows="1" fold="1" page="1" pageScale="1" pageWidth="850" pageHeight="1100" math="0" shadow="0"><root><mxCell id="0"/><mxCell id="1" parent="0"/><mxCell id="daYEHY68pMqqiSnO8TaO-17" value="&lt;p style=&quot;margin:0px;margin-top:4px;text-align:center;&quot;&gt;&lt;b&gt;FertiliserProduct&lt;/b&gt;&lt;/p&gt;&lt;hr size=&quot;1&quot;&gt;&lt;p style=&quot;margin:0px;margin-left:4px;&quot;&gt;&amp;nbsp;&lt;span style=&quot;background-color: initial;&quot;&gt;&amp;nbsp; permissionHolder: eCH-0108:uidType&lt;/span&gt;&lt;br&gt;&lt;/p&gt;&lt;p style=&quot;margin: 0px 0px 0px 4px;&quot;&gt;&amp;nbsp; &amp;nbsp; &amp;nbsp;|&amp;nbsp; eCH-0199:organisationMailAddressType&lt;br&gt;&lt;/p&gt;&lt;p style=&quot;margin: 0px 0px 0px 4px;&quot;&gt;&amp;nbsp; &amp;nbsp; &amp;nbsp; &amp;nbsp; &amp;nbsp;(as fallback)&lt;/p&gt;&lt;div&gt;&lt;br&gt;&lt;/div&gt;&lt;hr size=&quot;1&quot;&gt;&lt;p style=&quot;margin:0px;margin-left:4px;&quot;&gt;&lt;br&gt;&lt;/p&gt;" style="verticalAlign=top;align=left;overflow=fill;fontSize=12;fontFamily=Verdana;html=1;sketch=0;strokeWidth=2;fillColor=#e1d5e7;strokeColor=#9673a6;" parent="1" vertex="1"><mxGeometry x="-680" y="190" width="292" height="110" as="geometry"/></mxCell><mxCell id="daYEHY68pMqqiSnO8TaO-22" value="" style="endArrow=classic;html=1;sketch=0;fontFamily=Verdana;curved=1;entryX=0.318;entryY=0;entryDx=0;entryDy=0;entryPerimeter=0;" parent="1" source="daYEHY68pMqqiSnO8TaO-17" target="7" edge="1"><mxGeometry width="50" height="50" relative="1" as="geometry"><mxPoint x="-612.981" y="453.7850000000001" as="sourcePoint"/><mxPoint x="-538.1311475409836" y="350" as="targetPoint"/></mxGeometry></mxCell><mxCell id="2" value="&lt;p style=&quot;margin:0px;margin-top:4px;text-align:center;&quot;&gt;&lt;b&gt;&lt;i&gt;Product&lt;/i&gt;&lt;/b&gt;&lt;/p&gt;&lt;hr size=&quot;1&quot;&gt;&lt;p style=&quot;margin:0px;margin-left:4px;&quot;&gt;&lt;br&gt;&lt;/p&gt;&lt;hr size=&quot;1&quot;&gt;&lt;p style=&quot;margin:0px;margin-left:4px;&quot;&gt;&lt;br&gt;&lt;/p&gt;" style="verticalAlign=top;align=left;overflow=fill;fontSize=12;fontFamily=Verdana;html=1;sketch=0;strokeWidth=2;" vertex="1" parent="1"><mxGeometry x="-720" y="70" width="164.15" height="80" as="geometry"/></mxCell><mxCell id="3" value="" style="endArrow=block;html=1;sketch=0;fontFamily=Verdana;curved=1;endFill=0;exitX=0.196;exitY=0;exitDx=0;exitDy=0;entryX=0.538;entryY=0.998;entryDx=0;entryDy=0;entryPerimeter=0;exitPerimeter=0;" edge="1" parent="1" target="2" source="daYEHY68pMqqiSnO8TaO-17"><mxGeometry width="50" height="50" relative="1" as="geometry"><mxPoint x="-590.3154499999999" y="195.6880000000001" as="sourcePoint"/><mxPoint x="-1164.1799999999998" y="569.7" as="targetPoint"/></mxGeometry></mxCell><mxCell id="7" value="&lt;p style=&quot;margin:0px;margin-top:4px;text-align:center;&quot;&gt;&lt;b style=&quot;background-color: initial;&quot;&gt;FertiliserProductCategory&lt;/b&gt;&lt;br&gt;&lt;/p&gt;&lt;hr size=&quot;1&quot;&gt;&lt;p style=&quot;margin:0px;margin-left:4px;&quot;&gt;&lt;/p&gt;&lt;p style=&quot;margin:0px;margin-left:4px;&quot;&gt;&amp;nbsp;item: eCH-0261:EnumeratedType&lt;/p&gt;" style="verticalAlign=top;align=left;overflow=fill;fontSize=12;fontFamily=Verdana;html=1;sketch=0;strokeWidth=2;" vertex="1" parent="1"><mxGeometry x="-610" y="360" width="220" height="95" as="geometry"/></mxCell><mxCell id="9" value="" style="rounded=0;whiteSpace=wrap;html=1;" vertex="1" parent="1"><mxGeometry x="-470" y="70" width="250" height="100" as="geometry"/></mxCell><mxCell id="10" value="&lt;h1&gt;&lt;span style=&quot;background-color: initial;&quot;&gt;eCH-0263&lt;/span&gt;&lt;/h1&gt;&lt;div&gt;&lt;br&gt;&lt;/div&gt;" style="text;html=1;strokeColor=none;fillColor=none;spacing=5;spacingTop=-20;whiteSpace=wrap;overflow=hidden;rounded=0;strokeWidth=2;fontFamily=Verdana;" vertex="1" parent="1"><mxGeometry x="-458.5" y="80" width="195.7" height="80" as="geometry"/></mxCell><mxCell id="11" value="Fertiliser" style="text;html=1;strokeColor=none;fillColor=none;align=left;verticalAlign=middle;whiteSpace=wrap;rounded=0;strokeWidth=2;fontFamily=Verdana;" vertex="1" parent="1"><mxGeometry x="-458.50000000000006" y="120" width="226.4" height="30" as="geometry"/></mxCell></root></mxGraphModel></diagram></mxfile>